<svg xmlns="http://www.w3.org/2000/svg" viewBox="0 0 64 64"><defs><style>.cls-1{isolation:isolate;}.cls-2{fill:#289133;}.cls-3{fill:#fa9010;}.cls-4{fill:#fff;}.cls-5{fill:#ccc;}.cls-6{fill:#333;}.cls-7{fill:#666;}.cls-8,.cls-9{fill:none;stroke:#000;stroke-width:2px;}.cls-8{stroke-linecap:round;stroke-linejoin:round;}.cls-9{stroke-miterlimit:10;}.cls-10{opacity:0.25;mix-blend-mode:multiply;}.cls-11{mix-blend-mode:overlay;}</style></defs><title>Icon Color</title><g class="cls-1"><g id="Layer_1" data-name="Layer 1"><g id="Vector"><path class="cls-2" d="M49.18,12.66V43H21.31A5.77,5.77,0,0,0,11,43H7.18a2,2,0,0,0-1.39.53V27.93A15.27,15.27,0,0,1,21.06,12.66Z"/><path class="cls-3" d="M41.2,29V43H27.49V29a2.19,2.19,0,0,1,2.19-2.19H39A2.19,2.19,0,0,1,41.2,29Z"/><rect class="cls-4" x="9.18" y="26.09" width="13.93" height="11.14" rx="2.1"/><path class="cls-5" d="M7.61,20.7H49.18v-8H21.06A15.27,15.27,0,0,0,7.61,20.7Z"/><path class="cls-5" d="M10.36,45.56a4.8,4.8,0,0,0,.07.85H7.18a1.83,1.83,0,0,1-1.92-1.72,1.63,1.63,0,0,1,.53-1.19A2,2,0,0,1,7.18,43H11A5.66,5.66,0,0,0,10.36,45.56Z"/><path class="cls-5" d="M58.74,41.1v.69a4.93,4.93,0,0,1-5.18,4.62H21.86a4.8,4.8,0,0,0,.07-.85A5.66,5.66,0,0,0,21.31,43H53.56a1.26,1.26,0,0,0,1.32-1.18V41.1a1.94,1.94,0,0,1,3.86,0Z"/><path class="cls-6" d="M21.93,45.56a4.8,4.8,0,0,1-.07.85,5.78,5.78,0,0,1-11.43,0,4.8,4.8,0,0,1-.07-.85A5.66,5.66,0,0,1,11,43a5.77,5.77,0,0,1,10.33,0A5.66,5.66,0,0,1,21.93,45.56Z"/><circle class="cls-7" cx="16.15" cy="45.56" r="2.2"/><circle class="cls-7" cx="36.65" cy="36.18" r="0.72"/></g><g id="Line"><path class="cls-8" d="M49.18,12.66V43H21.31A5.77,5.77,0,0,0,11,43H7.18a2,2,0,0,0-1.39.53V27.93A15.27,15.27,0,0,1,21.06,12.66Z"/><path class="cls-8" d="M41.2,29V43H27.49V29a2.19,2.19,0,0,1,2.19-2.19H39A2.19,2.19,0,0,1,41.2,29Z"/><rect class="cls-9" x="9.18" y="26.09" width="13.93" height="11.14" rx="2.1"/><line class="cls-9" x1="16.15" y1="37.24" x2="16.15" y2="26.09"/><line class="cls-9" x1="9.18" y1="31.66" x2="23.11" y2="31.66"/><path class="cls-8" d="M7.61,20.7H49.18v-8H21.06A15.27,15.27,0,0,0,7.61,20.7Z"/><path class="cls-8" d="M10.36,45.56a4.8,4.8,0,0,0,.07.85H7.18a1.83,1.83,0,0,1-1.92-1.72,1.63,1.63,0,0,1,.53-1.19A2,2,0,0,1,7.18,43H11A5.66,5.66,0,0,0,10.36,45.56Z"/><path class="cls-8" d="M58.74,41.1v.69a4.93,4.93,0,0,1-5.18,4.62H21.86a4.8,4.8,0,0,0,.07-.85A5.66,5.66,0,0,0,21.31,43H53.56a1.26,1.26,0,0,0,1.32-1.18V41.1a1.94,1.94,0,0,1,3.86,0Z"/><path class="cls-9" d="M21.93,45.56a4.8,4.8,0,0,1-.07.85,5.78,5.78,0,0,1-11.43,0,4.8,4.8,0,0,1-.07-.85A5.66,5.66,0,0,1,11,43a5.77,5.77,0,0,1,10.33,0A5.66,5.66,0,0,1,21.93,45.56Z"/><circle class="cls-9" cx="16.15" cy="45.56" r="2.2"/><circle class="cls-9" cx="36.65" cy="36.18" r="0.72"/></g><g id="Shadow" class="cls-10"><path d="M36.85,183.56h-.28L38.49,189v2.48l4.51.71.86,12v1.37c-1.64.59,0,2.59,0,4.33,0,1.11-2.34,1.58-1.58,2.31a2.84,2.84,0,0,1-1.18.26H38.49v2.87c0,5.57-4.85,10.08-10.82,10.08H25.32a12.24,12.24,0,0,1-1.35-.09c5.34-.62,9.47-4.85,9.47-10V212.5l.3-.28c0-1.91.47-1.8.47-3.22l.09-.83a73.14,73.14,0,0,0-.39-7.58v-5.2l-.48-6.49a9.48,9.48,0,0,0-1.65-5.35,10.44,10.44,0,0,0-2.93-2.88V178.5a4.2,4.2,0,0,0-4.33-4.06h5a4.2,4.2,0,0,1,4.33,4.06v2.17a10.44,10.44,0,0,1,2.93,2.88ZM143.1-75.87v2.74a1.44,1.44,0,0,1-1.44,1.44h-1.11a4,4,0,0,1,1.18,2.85v1.12h0V-64a3.92,3.92,0,0,0,.19,1.24h0a4,4,0,0,0,.54,1.09,4.06,4.06,0,0,0,1.94,1.49,4,4,0,0,1,2.68,3.81v7.22h0v9.43h0v7.94A5.13,5.13,0,0,1,142-26.69h5a5.13,5.13,0,0,0,5.13-5.13v-7.94h0v-9.43h0v-7.22a4,4,0,0,0-2.68-3.81,4.06,4.06,0,0,1-1.94-1.49A4,4,0,0,1,147-62.8h0a3.92,3.92,0,0,1-.19-1.24v-3.68h0v-1.12a4,4,0,0,0-1.18-2.85h1.11a1.44,1.44,0,0,0,1.44-1.44v-2.74a1.44,1.44,0,0,0-1.44-1.44h-5.05A1.44,1.44,0,0,1,143.1-75.87ZM41.37-34.17h-5a2,2,0,0,1,2,2v1.64h5.05v-1.64A2,2,0,0,0,41.37-34.17ZM13.62,50.74a5.74,5.74,0,0,0,8.24-4.33H16.81A5.73,5.73,0,0,1,13.62,50.74Zm.91,59.55a2.3,2.3,0,0,0-.26,0,4.61,4.61,0,0,1,4.37,4.59V115h5.05v-.07a4.62,4.62,0,0,0-4.62-4.62Zm122-16.53h-5l.43,1.85h5.05Zm12.1-84.71h-5.05a2,2,0,0,1,0,4h-4.05l-4.23,11h4.28l4.23-11h4.82a2,2,0,0,0,0-4Zm6.73,25.54v9A11.36,11.36,0,0,1,144,55h5a11.36,11.36,0,0,0,11.35-11.36v-9l-.82-3.1-2-7.41h-5.05l2,7.41ZM-93-63.16h3.38l-.05-.05H-93ZM-63.19,195.9l-.75.75-3.86-3.86-1.27,9v7.16l2.2,3.54A12.36,12.36,0,0,1-65,219v6.46h5V219a12.36,12.36,0,0,0-1.87-6.53l-2.2-3.54v-7.16Zm9-258.09a7,7,0,0,1-4.44,6.48,6.81,6.81,0,0,0,2.52.48,7,7,0,0,0,7-7,7,7,0,0,0-7-7,7,7,0,0,0-2.52.48A7,7,0,0,1-54.14-62.19ZM128,196.57l1,.42a3.68,3.68,0,0,0,1.43.28l-1.58-1.58-.2.2ZM37.18-69.21a3,3,0,0,1,0,.43,1.34,1.34,0,0,1,.37.92v1a1.36,1.36,0,0,1-1.35,1.35h.79v1.52a10.17,10.17,0,0,1,8.82,5.42A6.13,6.13,0,0,1,48-53.8v4a6.12,6.12,0,0,1-2.21,4.72,10.16,10.16,0,0,1-8.82,5.43v5.51H42v-5.51A10.15,10.15,0,0,0,52-49.84v-4A10.15,10.15,0,0,0,42-63.94v-1.52H41.2a1.36,1.36,0,0,0,1.35-1.35v-1a1.34,1.34,0,0,0-.37-.92,3,3,0,0,0,0-.43,3,3,0,0,0-3-3,3,3,0,0,0-2.52,1.42A2.93,2.93,0,0,1,37.18-69.21Zm12,112V20.7h0v-8h-5v8h0V43h4.38A1.38,1.38,0,0,0,49.18,42.78ZM259.71,14.11h-.93a7.77,7.77,0,0,0-1.6.18,8.31,8.31,0,0,1,4.53,2.87,12.4,12.4,0,0,1,2.53,7.36,25.33,25.33,0,0,0-.62,8.73c.1.91.25,1.72.4,2.5h0c.2,1,.4,2,.53,3.16h0a21.94,21.94,0,0,1,.15,2.59,25.51,25.51,0,0,1-.46,4.84c0,2-1.31,3.54-2.94,3.54h5.05c1.63,0,2.94-1.58,2.94-3.54a25.51,25.51,0,0,0,.46-4.84,21.94,21.94,0,0,0-.15-2.59h0c-.13-1.15-.33-2.15-.53-3.16h0c-.15-.78-.3-1.59-.4-2.5a25.33,25.33,0,0,1,.62-8.73,12.4,12.4,0,0,0-2.53-7.36,8,8,0,0,0-6.13-3.05ZM253.59-65.8a10.19,10.19,0,0,1,2.1.72v-1A11.63,11.63,0,0,0,253.59-65.8Zm6,5.2c.72,4-3.69,8.2-8.49,9.34a11,11,0,0,0,3.31.28c5.4-.4,11-5.13,10.23-9.62v-15h-3.88v10.5a9.17,9.17,0,0,0-1.17-.46Zm2.75,22.31V-42A1.3,1.3,0,0,0,261-43.34h-5A1.3,1.3,0,0,1,257.27-42v3.74a2.75,2.75,0,0,1-2.75,2.75h-2.74A2.76,2.76,0,0,0,249.3-34l-1.91,4a2.76,2.76,0,0,1-2.48,1.57H250A2.76,2.76,0,0,0,252.44-30l1.91-4a2.76,2.76,0,0,1,2.48-1.56h2.74A2.75,2.75,0,0,0,262.32-38.29Zm-2.91,182.92v-1.09a4.23,4.23,0,0,0-4.24-4.23h1.15L255.25,116l-.09-2-.2-4.18h0a2.16,2.16,0,0,0,2.16-2.16v-2.07h-1.81V95.84h2.17V95a7.71,7.71,0,0,0-7.71-7.71h-5.05A7.71,7.71,0,0,1,252.47,95v.81H250.3v9.72h1.81v2.07a2.16,2.16,0,0,1-2.16,2.16h0l.2,4.18.09,2,1.07,23.31h-1.15a4.23,4.23,0,0,1,4.24,4.23v1.09ZM236.29,17.16a12.44,12.44,0,0,1,2.54,7.36,25.64,25.64,0,0,0-.63,8.73c.11.91.25,1.72.4,2.5h0c.19,1,.39,2,.53,3.16h0a21.94,21.94,0,0,1,.15,2.59,26.54,26.54,0,0,1-.45,4.84,3.28,3.28,0,0,1-3,3.54h5.05a3.28,3.28,0,0,0,2.95-3.54,25.66,25.66,0,0,0,.45-4.84,21.94,21.94,0,0,0-.15-2.59h0c-.14-1.15-.34-2.15-.53-3.16h0c-.15-.78-.29-1.59-.4-2.5a25.64,25.64,0,0,1,.63-8.73,12.36,12.36,0,0,0-2.54-7.36,8,8,0,0,0-6.12-3.05h-1.85a7.69,7.69,0,0,0-1.6.18A8.29,8.29,0,0,1,236.29,17.16Zm-327.61-82-.05,0,.05.07,0-.07ZM237.31,198.56q.06-.42.15-.84l.06-.23c.08-.3.17-.59.27-.88l.05-.14a10.57,10.57,0,0,1,.43-1,9.83,9.83,0,0,1,4.23-4.26c.32-.16.64-.3,1-.43l.17-.07c.27-.1.54-.18.83-.26h0l-.26-.07c-.27-.06-.55-.11-.83-.15l-.29,0a9,9,0,0,0-2.24,0l-.29,0c-.28,0-.56.09-.83.15l-.26.07a7.63,7.63,0,0,0-.85.26l-.17.07c-.34.13-.66.27-1,.43a9.83,9.83,0,0,0-4.23,4.26,10.57,10.57,0,0,0-.43,1l0,.14c-.1.29-.19.58-.27.88l-.06.23a8.22,8.22,0,0,0-.15.84,2.56,2.56,0,0,0,0,.27,10.37,10.37,0,0,0-.06,1.12,8.57,8.57,0,0,0,.07,1.13c0,.1,0,.2,0,.3a6.83,6.83,0,0,0,.16.81c0,.1,0,.2.07.3.08.28.16.55.26.82l.08.21c.13.34.28.66.44,1a9.85,9.85,0,0,0,4.18,4.15c.32.16.64.31,1,.44l.17.06c.27.1.56.19.85.27l.26.06a7.6,7.6,0,0,0,.83.16l.29,0a9,9,0,0,0,2.24,0l.29,0a7.6,7.6,0,0,0,.83-.16l.26-.06h0c-.29-.08-.56-.16-.83-.26l-.17-.06c-.34-.13-.66-.28-1-.44a9.85,9.85,0,0,1-4.18-4.15c-.16-.32-.31-.64-.44-1l-.08-.21c-.1-.27-.18-.54-.26-.82,0-.1,0-.2-.07-.3a6.83,6.83,0,0,1-.16-.81c0-.1,0-.2,0-.3a8.57,8.57,0,0,1-.07-1.13,10.37,10.37,0,0,1,.06-1.12A2.56,2.56,0,0,1,237.31,198.56Zm-100.77-5.44.2-.2.88-.89-.12-.12a4.23,4.23,0,0,0,.34-3.7l-.77-1.88a3.45,3.45,0,0,0-.28-.54l-6.53-10.48a4,4,0,0,0-5.77-.8,3.68,3.68,0,0,1,.72.8l6.53,10.48a3.45,3.45,0,0,1,.28.54l.77,1.88a4.23,4.23,0,0,1-.34,3.7l.12.12.09,1.22-.07,1,3.15,3.14,2.53-2.52Zm12.22-99.36V107l3.44,2.64a3.51,3.51,0,0,1,1.38,2.79v22.23a3.52,3.52,0,0,1-3.52,3.51h5.05a3.52,3.52,0,0,0,3.52-3.51V112.44a3.51,3.51,0,0,0-1.38-2.79L153.81,107V93.76Zm-28.13,130,2.53,2.53,4-4a2.35,2.35,0,0,0,0-3.33L123.23,215l-2,2-2.57-2.58,1.53-1.53a2.35,2.35,0,0,0-1.75.68l-.86.86,4.5,4.5a2.35,2.35,0,0,1,0,3.33Zm32.54,71v-8.2a41.65,41.65,0,0,0-7.75-24.2l-2-2.77-2,2.77c-.19.26-.37.53-.55.79a41.64,41.64,0,0,1,7.21,23.41v3.15ZM157.7,175a4.21,4.21,0,0,0-5.67-.5,5.66,5.66,0,0,1,.62.5l1.64,1.64L159,181.4l1.64,1.63c2,2,1.82,5.06-.3,6.38L149.9,196a3.55,3.55,0,0,1-.55.28l-.85.35.2.19.12-.11a4.24,4.24,0,0,0,3.71.33l1.87-.76A3.55,3.55,0,0,0,155,196l10.47-6.54c2.12-1.32,2.27-4.41.3-6.38l-1.64-1.63-4.74-4.75ZM-57.64,270.94a6.87,6.87,0,0,1-2.5-5.43v-1.82a2.91,2.91,0,0,0-2.91-2.9h-1.78a2.86,2.86,0,0,0-1.63.5,2.92,2.92,0,0,1,1.27,2.4v1.82a6.87,6.87,0,0,0,2.5,5.43,7.8,7.8,0,0,1,3,6.15v1.65a7.79,7.79,0,0,1-3.81,6.71h0a8.51,8.51,0,0,0-4,7.34v1.07h0l5.21,10.64-3.85.46a8,8,0,0,0-1.2.25h0a8.36,8.36,0,0,0-1.09.4,8,8,0,0,0-4.25,4.55,3.83,3.83,0,0,1-3,2.53,4.21,4.21,0,0,0,.62.05h3.81a3.81,3.81,0,0,0,3.59-2.58,8,8,0,0,1,4.25-4.55,8.36,8.36,0,0,1,1.09-.4h0a8,8,0,0,1,1.2-.25l3.85-.46-5.21-10.64h0v-1.07a8.51,8.51,0,0,1,4-7.34h0a7.79,7.79,0,0,0,3.81-6.71v-1.65A7.8,7.8,0,0,0-57.64,270.94ZM-62.75,179h-5a4.17,4.17,0,0,1,3.16,1.21l8.55,8.55-5.32,5.33,2.52,2.53,7.85-7.86-8.55-8.55A4.17,4.17,0,0,0-62.75,179ZM-54,18.73H-59a5.38,5.38,0,0,1,5.38,5.38v20.4A5.39,5.39,0,0,1-59,49.91H-54a5.39,5.39,0,0,0,5.38-5.4V24.11A5.38,5.38,0,0,0-54,18.73Zm3.16-64.58a8.69,8.69,0,0,0-.4,5v10.41h5V-40.84c-.23-1.31-.62-4.73,1.3-6.11A8.35,8.35,0,0,0-50.82-45.85ZM-60.88,103.47h0v-1.74a12.3,12.3,0,0,0-4.49-9.51,12.6,12.6,0,0,0-2-1.33A11.72,11.72,0,0,0-69.55,90a11.34,11.34,0,0,0-1.18-.31,12.64,12.64,0,0,0-2.48-.25h0a12.41,12.41,0,0,0-2.53.26,10.59,10.59,0,0,1,1.14.3,11.72,11.72,0,0,1,2.21.93,12.6,12.6,0,0,1,2,1.33,12.3,12.3,0,0,1,4.49,9.51v1.74h0v14.67h5.05ZM-76.65-71.25l-6.61,3c3.76.22,6.79,2.35,7.23,5.06h5c-.44-2.71-3.47-4.84-7.23-5.06l6.61-3c-1.38-2.08-4.52-2.83-7.74-2A5.11,5.11,0,0,1-76.65-71.25ZM-64.24,14.1h-5.05a3.29,3.29,0,0,1,3,1.91l1.24,2.72H-60L-61.25,16A3.29,3.29,0,0,0-64.24,14.1ZM-79.42-58l4.32,4.32c1.69-2.37.89-6.32-2-9.2l-.36-.34-5,.48c.12.11-1.24.26-1.12.38C-82.11-60.88-79.75-59.66-79.42-58ZM42.42,306.86h-.06v-13.2a58.47,58.47,0,0,0-1.73-14.19l-1.14-4.54H40V263.52a2.74,2.74,0,0,0-2.74-2.73h-5A2.74,2.74,0,0,1,35,263.52v11.41h-.51l1.14,4.54a58.47,58.47,0,0,1,1.73,14.19v13.2h.06L39,311.21a1.15,1.15,0,0,1-1.08,1.54h5A1.15,1.15,0,0,0,44,311.21Zm225.7-21,0-.12a80.57,80.57,0,0,0-3.53-13.36h.48v-4.93a3.21,3.21,0,0,0-3.21-3.21h-5a3.21,3.21,0,0,1,3.21,3.21v4.93h-.48a80.57,80.57,0,0,1,3.53,13.36l0,.12a76.33,76.33,0,0,1,.95,7.73,78.72,78.72,0,0,1-.43,15.65h5.05a78.72,78.72,0,0,0,.43-15.65A76.33,76.33,0,0,0,268.12,285.89Zm-108.33-72.3-.86.86,3.13,3.13-6.17,6.16,2.53,2.53,8.69-8.69-4-4A2.35,2.35,0,0,0,159.79,213.59Zm82.16,82-4.31,13.72h5.05l4.46-14.18Zm-204.08-162h5.05A14.58,14.58,0,0,0,57.5,119h-5A14.58,14.58,0,0,1,37.87,133.57Zm231.37,64.25a.57.57,0,0,1,0-.13c-.08-.74-.19-1.46-.33-2.18h0a22.37,22.37,0,0,0-19.62-17.78l-.51,0c-.59,0-1.17-.07-1.77-.07s-1.18,0-1.77.07l-.51,0-.25,0a22.36,22.36,0,0,1,19.38,17.74h0c.14.72.25,1.44.33,2.18a.57.57,0,0,0,0,.13c0,.33.05.66.07,1s0,.75,0,1.14,0,.77,0,1.16c0,0,0,.06,0,.09,0,.35,0,.71-.08,1.06v0a22.35,22.35,0,0,1-19.7,19.85,2.13,2.13,0,0,1,.25,0l.51,0c.59,0,1.17.08,1.77.08s1.18,0,1.77-.08l.51,0a22.35,22.35,0,0,0,19.94-19.88v0c0-.35.06-.71.08-1.06,0,0,0-.06,0-.09,0-.39,0-.77,0-1.16s0-.76,0-1.14S269.27,198.15,269.24,197.82ZM153.17,299v-4.25l-5-5.05v5.05L138.39,285h0l9.73,9.73V299a16.89,16.89,0,0,1,9,15h5.05A16.89,16.89,0,0,0,153.17,299ZM35.61,107.09a.62.62,0,0,0-.19,0,11.45,11.45,0,0,0-7.32-4.55,1.84,1.84,0,0,0-1.9,1,10.64,10.64,0,0,1,4.17,3.52.62.62,0,0,1,.19,0s21.89,5.33,21.89,11.9h5C57.5,112.42,35.61,107.09,35.61,107.09Zm21.2-67.71a1.84,1.84,0,0,0-1.93,1.72v.69A1.26,1.26,0,0,1,53.56,43H53.5a5.11,5.11,0,0,1-5,3.44h5.05a4.93,4.93,0,0,0,5.18-4.62V41.1A1.84,1.84,0,0,0,56.81,39.38ZM-88.71-65.74h0l.5,0h-.53ZM-77-45.83c-1.09,2.13.59,4.7.59,4.7l3.64.81c.11-.35.24-.68.36-1-.21-1.53-.33-4.39,1.38-5.63A8.35,8.35,0,0,0-77-45.83ZM-89.2-62.73l.06.76.35-.35Zm28.32,190.41v-9.54h-5.05v9.54a2.9,2.9,0,0,1-2.89,2.9h5A2.9,2.9,0,0,0-60.88,127.68Zm-28-193.41h0ZM-90.23,16a3.29,3.29,0,0,1,3-1.91h-3.07a1.54,1.54,0,0,0-.82.24,1.55,1.55,0,0,1,.72,1.3v.77Zm26.35-61.85c-1.09,2.14,4.14,5.52,4.14,5.52.13-.41.28-.8.43-1.17-.19-1.56-.25-4.27,1.4-5.46A8.32,8.32,0,0,0-63.88-45.84ZM-94.46-65.75a6.11,6.11,0,0,1,.75,0l-.05,0A5.43,5.43,0,0,0-94.46-65.75ZM-66,174.45h-5V179h5Zm-4.12-43.87h-5v8.14a3.79,3.79,0,0,1-1.29,2.85,3.76,3.76,0,0,0,2.52,1,3.82,3.82,0,0,0,3.82-3.82ZM-78.7,267.39v-4.14a2.46,2.46,0,0,0-2.46-2.46h-2.66a2.44,2.44,0,0,0-1.2.32,2.43,2.43,0,0,1,1.27,2.14v4.14a5.48,5.48,0,0,0,5.49,5.48h0a5.48,5.48,0,0,0,2.52-.61A5.49,5.49,0,0,1-78.7,267.39Zm.44-91.41,1.53-1.53h-3.06ZM-89.5,194.77l.86-.59L-89,191l-2.54,1.74Zm13.76,28.4-2.52-2.53-4.8,4.8h5Z"/></g><g id="Highligth" class="cls-11"><path class="cls-4" d="M10.43,46.41a5.77,5.77,0,0,0,5.72,4.93,5.69,5.69,0,0,0,2.18-.44,5.71,5.71,0,0,1-3.54-4.49H11.54a1.83,1.83,0,0,1-1.92-1.72,1.63,1.63,0,0,1,.53-1.19V27.93a15.18,15.18,0,0,1,2-7.52c.16-.27.32-.54.49-.8s.18-.28.28-.42.37-.51.56-.75l.26-.33c.24-.28.49-.56.75-.82l.35-.34q.31-.32.66-.6l.3-.26c.31-.26.63-.49,1-.72l.39-.25c.24-.16.49-.31.74-.46l.4-.22c.35-.19.71-.36,1.08-.52l.41-.17c.27-.11.55-.21.83-.3l.47-.15c.39-.12.78-.22,1.18-.31l.41-.07.92-.14.53,0c.34,0,.69-.05,1-.06H20.78c-.34,0-.69,0-1,.06l-.53,0-.92.14-.41.07c-.4.09-.79.19-1.18.31l-.47.15c-.28.09-.56.19-.83.3l-.41.17c-.37.16-.73.33-1.08.52l-.4.22c-.25.15-.5.3-.74.46l-.39.25c-.33.23-.65.46-1,.72l-.3.26q-.35.28-.66.6l-.35.34c-.26.26-.51.54-.75.82l-.26.33c-.19.24-.38.5-.56.75s-.19.28-.28.42-.33.53-.49.8a15.18,15.18,0,0,0-2,7.52V43.5a1.63,1.63,0,0,0-.53,1.19,1.83,1.83,0,0,0,1.92,1.72Z"/><path class="cls-4" d="M54.88,41.1v.69A1.26,1.26,0,0,1,53.56,43h4.36a1.5,1.5,0,0,0,.7-.2,4,4,0,0,0,.12-1V41.1a1.94,1.94,0,0,0-3.86,0Z"/></g></g></g></svg>