<?xml version="1.0" encoding="utf-8"?>
<!-- Generator: Adobe Illustrator 25.2.1, SVG Export Plug-In . SVG Version: 6.00 Build 0)  -->
<svg version="1.1" id="Layer_1" xmlns="http://www.w3.org/2000/svg" xmlns:xlink="http://www.w3.org/1999/xlink" x="0px" y="0px"
	 viewBox="0 0 64 64" style="enable-background:new 0 0 64 64;" xml:space="preserve">
<style type="text/css">
	.st0{fill:#FFFFFF;}
	.st1{fill:#E1A53C;}
	.st2{clip-path:url(#SVGID_1_);fill:#FFFFFF;}
	.st3{fill:none;}
</style>
<g>
	<path class="st0" d="M53.3,24.1c0,0,0.7,1.8,3.5,1.7c2.8-0.1,2.9-1.4,2.9-1.4s-0.3-1.3-1.3-1.7c-1-0.4-2-0.6-2.7-0.4
		C54.8,22.5,53.4,23.7,53.3,24.1z"/>
	<g>
		<g>
			<g>
				<g>
					<g>
						<path class="st1" d="M29.8,40c0,0-0.5,2-1.7,3.1c-1.2,1.2-5,4.2-7.1,5.8l-0.5,0.3c-0.3,0.3-0.3,0.7,0,1l7.1,7.4
							c0.3,0.3,0.7,0.3,1,0l1.4-1.4c1.3-1.2,0.9-3-0.3-4.3l-1.3-1.3c1.7-1.3,3.4-2.9,4.3-3.7c2-2.1,2.9-5,2.9-5L29.8,40z"/>
						<path d="M28.1,58.1C28.1,58.1,28,58.1,28.1,58.1c-0.3,0-0.5-0.1-0.7-0.3l-7.1-7.4c-0.4-0.4-0.4-1,0-1.4l0,0l0.5-0.3
							c1.6-1.3,5.9-4.6,7.1-5.8c1.1-1.1,1.6-2.9,1.6-3l0.1-0.3l6.4,2.3l-0.1,0.2c0,0.1-1,2.9-3,5.1c-0.8,0.8-2.4,2.3-4.1,3.6l1,1
							c0.7,0.7,1.1,1.5,1.2,2.3c0.1,0.9-0.2,1.7-0.9,2.3l-1.4,1.4C28.6,58,28.3,58.1,28.1,58.1z M20.7,49.4c-0.2,0.2-0.2,0.5,0,0.6
							l7.1,7.4c0.2,0.2,0.5,0.2,0.7,0l1.4-1.4c0.5-0.5,0.8-1.2,0.7-1.9c-0.1-0.7-0.4-1.4-1-2L28,50.8l0.2-0.2
							c1.8-1.3,3.4-2.9,4.2-3.7c1.6-1.7,2.5-3.9,2.8-4.6l-5.4-1.9c-0.2,0.6-0.7,2-1.6,2.9c-1.1,1.1-4.4,3.7-7.2,5.8l0,0L20.7,49.4z"
							/>
					</g>
					<g>
						<defs>
							<path id="SVGID_3_" d="M29.8,40c0,0-0.5,2-1.7,3.1c-1.2,1.2-5,4.2-7.1,5.8l-0.5,0.3c-0.3,0.3-0.3,0.7,0,1l7.1,7.4
								c0.3,0.3,0.7,0.3,1,0l1.4-1.4c1.3-1.2,0.9-3-0.3-4.3l-1.3-1.3c1.7-1.3,3.4-2.9,4.3-3.7c2-2.1,2.9-5,2.9-5L29.8,40z"/>
						</defs>
						<clipPath id="SVGID_1_">
							<use xlink:href="#SVGID_3_"  style="overflow:visible;"/>
						</clipPath>
						<path class="st2" d="M24.2,44.6l6,6l2.1,5.3l-2.7,3.1l-5.2-1c0,0-4.6-6-4.7-6.3s-0.8-2.9-0.8-2.9L24.2,44.6z"/>
					</g>
					<path d="M28.1,58.1C28.1,58.1,28,58.1,28.1,58.1c-0.3,0-0.5-0.1-0.7-0.3l-7.1-7.4c-0.4-0.4-0.4-1,0-1.4l0,0l0.5-0.3
						c1.6-1.3,5.9-4.6,7.1-5.8c1.1-1.1,1.6-2.9,1.6-3l0.1-0.3l6.4,2.3l-0.1,0.2c0,0.1-1,2.9-3,5.1c-0.8,0.8-2.4,2.3-4.1,3.6l1,1
						c0.7,0.7,1.1,1.5,1.2,2.3c0.1,0.9-0.2,1.7-0.9,2.3l-1.4,1.4C28.6,58,28.3,58.1,28.1,58.1z M20.7,49.4c-0.2,0.2-0.2,0.5,0,0.6
						l7.1,7.4c0.2,0.2,0.5,0.2,0.7,0l1.4-1.4c0.5-0.5,0.8-1.2,0.7-1.9c-0.1-0.7-0.4-1.4-1-2L28,50.8l0.2-0.2
						c1.8-1.3,3.4-2.9,4.2-3.7c1.6-1.7,2.5-3.9,2.8-4.6l-5.4-1.9c-0.2,0.6-0.7,2-1.6,2.9c-1.1,1.1-4.4,3.7-7.2,5.8l0,0L20.7,49.4z"
						/>
					<path d="M56.8,36.2c-2,0-2.5-0.9-2.5-1c0,0,0-0.1,0-0.1l-0.1-0.9c0,0,0,0,0,0L53,23.8c0-0.1,0.1-0.3,0.2-0.3
						c0.1,0,0.3,0.1,0.3,0.2c0,0.1,0.6,1.9,3.1,1.9c2.5,0,2.9-1.4,2.9-1.5c0-0.1,0.2-0.2,0.3-0.2c0.1,0,0.2,0.1,0.2,0.3l-0.4,10.9
						c0,0.1,0,0.1-0.1,0.1C59.5,35.3,58.8,36.2,56.8,36.2z M54.8,35c0.1,0.1,0.6,0.7,2.1,0.7c1.4,0,2.1-0.5,2.3-0.7l0.4-9.8
						c-0.5,0.5-1.3,1-2.8,1c-1.5,0-2.4-0.6-3-1.2l1,9.2L54.8,35z"/>
					<g>
						<path d="M54.4,32.2l0.1,0.9c0,0,0.4,0.8,2.3,0.8c1.9,0,2.5-0.8,2.5-0.8l0.4-7.3c0,0-0.4,1.7-3.1,1.7c-2.7,0-3.3-2.1-3.3-2.1
							L54.4,32.2z"/>
						<path d="M56.8,34.2c-2,0-2.5-0.9-2.5-1c0,0,0-0.1,0-0.1l-0.1-0.9L53,25.5c0-0.1,0.1-0.3,0.2-0.3c0.1,0,0.3,0,0.3,0.2
							c0,0.1,0.6,1.9,3.1,1.9c2.5,0,2.9-1.4,2.9-1.5c0-0.1,0.2-0.2,0.3-0.2c0.1,0,0.2,0.1,0.2,0.3l-0.4,7.3c0,0.1,0,0.1-0.1,0.1
							C59.5,33.3,58.8,34.2,56.8,34.2z M54.8,33.1c0.1,0.1,0.6,0.7,2.1,0.7c1.4,0,2.1-0.5,2.3-0.7l0.4-6.2c-0.5,0.5-1.3,1-2.8,1
							c-1.4,0-2.3-0.6-2.9-1.1l0.9,5.5c0,0,0,0,0,0L54.8,33.1z"/>
					</g>
					<g>
						<path class="st1" d="M17.4,28.6c0,0-3.9,0-5.2-1.6c-1.3-1.6-1.2-4-1.2-4s0.6-1.5,0.7-2.2c0.1-1.8-0.5-2.9-0.5-2.9
							s1.2-3.9-0.1-4c-1.5-0.2-1.7,4-1.7,4s-0.1-3.8-1.7-3.6c-1.5,0.2-0.1,4.3-0.1,4.3s-1.1-3.1-2.3-2.8s0.9,3.9,0.9,3.9
							s0,0.6,0.3,1.8c0.4,1.4,1.9,1.9,1.8,1.8c0,0,0.9,4.8,2.7,6.2c1.6,1.2,3.3,1.4,4.1,1.4s2.3,0,2.3,0h1.4L17.4,28.6z"/>
						<path d="M18.7,31.2H15c-0.9,0-2.6-0.2-4.2-1.4c-1.7-1.3-2.6-5.3-2.8-6.2c-0.5-0.2-1.5-0.8-1.9-2c-0.3-1-0.3-1.6-0.3-1.8
							C5.6,19.3,4.3,17,4.7,16c0.1-0.2,0.2-0.4,0.5-0.5c0.6-0.2,1.1,0.2,1.5,0.8c-0.1-0.7-0.1-1.5,0.2-1.9C7,14.2,7.3,14,7.6,14
							c0.3,0,0.6,0.1,0.9,0.3c0.4,0.3,0.7,1,0.8,1.7c0.2-0.8,0.4-1.6,0.9-2c0.2-0.2,0.5-0.3,0.8-0.3c0.2,0,0.5,0.2,0.6,0.4
							c0.6,0.9,0,3.3-0.2,3.9c0.2,0.3,0.6,1.3,0.5,2.9c0,0.7-0.6,2-0.7,2.3c0,0.3-0.1,2.4,1.1,3.8c1.2,1.5,5,1.5,5,1.5
							c0.1,0,0.2,0.1,0.2,0.1l1.3,2.3c0,0.1,0,0.2,0,0.3C18.9,31.1,18.8,31.2,18.7,31.2z M8.5,23.3c0,0.2,0.9,4.8,2.6,6
							c1.5,1.1,3.1,1.3,3.9,1.3h3.2l-1-1.8c-0.8,0-4-0.2-5.3-1.7c-1.4-1.7-1.2-4.1-1.2-4.2c0,0,0-0.1,0-0.1c0,0,0.6-1.5,0.6-2.1
							c0.1-1.7-0.5-2.7-0.5-2.7c0-0.1,0-0.1,0-0.2c0.3-1.1,0.7-3,0.3-3.6c-0.1-0.1-0.1-0.1-0.2-0.1c-0.2,0-0.3,0-0.4,0.1
							c-0.7,0.6-1,2.8-1,3.6c0,0.1-0.1,0.3-0.3,0.3c0,0,0,0,0,0c-0.1,0-0.3-0.1-0.3-0.3c0-0.7-0.2-2.7-0.9-3.3
							c-0.1-0.1-0.3-0.2-0.5-0.1c-0.1,0-0.2,0.1-0.3,0.2c-0.5,0.7,0.2,2.9,0.4,3.8c0,0,0,0,0,0c0,0.1,0,0.3-0.2,0.3
							c-0.1,0-0.3,0-0.3-0.2c0,0,0,0,0,0c-0.3-0.9-1.2-2.8-1.9-2.6c-0.1,0-0.1,0.1-0.1,0.1c-0.2,0.6,0.6,2.4,1.1,3.4
							c0,0,0,0.1,0,0.1c0,0,0,0.6,0.3,1.7C7,22.6,8,23,8.2,23.1c0.1,0,0.2,0,0.2,0.1C8.5,23.3,8.5,23.3,8.5,23.3z"/>
					</g>
					<g>
						<path class="st1" d="M10.9,19c0,0,1.8-2.2,2.5-1.4c0.8,0.9-0.3,1.7-0.9,2.2c-0.6,0.5-1,1.6-1,1.6"/>
						<path d="M11.5,21.7C11.5,21.7,11.5,21.7,11.5,21.7c-0.2-0.1-0.3-0.2-0.2-0.4c0,0,0.5-1.2,1.1-1.7l0.1,0c0.4-0.3,1-0.8,1-1.3
							c0-0.2-0.1-0.4-0.2-0.5c-0.1-0.1-0.1-0.1-0.2-0.1c-0.5,0-1.4,0.9-1.9,1.5c-0.1,0.1-0.3,0.1-0.4,0c-0.1-0.1-0.1-0.3,0-0.4
							c0.1-0.2,1.4-1.7,2.3-1.7c0.2,0,0.5,0.1,0.6,0.3c0.2,0.3,0.4,0.6,0.3,0.9c-0.1,0.7-0.8,1.2-1.2,1.6l-0.1,0
							c-0.5,0.4-1,1.4-1,1.5C11.7,21.6,11.6,21.7,11.5,21.7z"/>
					</g>
					<path d="M8.9,22.2c-0.1,0-0.2,0-0.2-0.1c0,0-0.6-1-0.1-1.9c0.5-0.9,1.1-0.9,1.2-0.9c0.1,0,0.3,0.1,0.3,0.3s-0.1,0.3-0.3,0.3
						c0,0-0.4,0-0.8,0.7c-0.4,0.7,0.1,1.3,0.1,1.4c0.1,0.1,0,0.3-0.1,0.4C9,22.2,9,22.2,8.9,22.2z"/>
					<g>
						<path class="st1" d="M48.5,30.3c0,0,0.8,1,2.7,1.3c1.9,0.2,1.9,0,1.9,0s-1-2.1-0.6-2.9c0.4-0.8,2.1-0.8,2.5,0.4
							c0.4,1.3-0.8,1.5-0.8,1.5l0.2,3.6c0,0-1.9,0.4-3.8,0c-1.9-0.4-3.1-1.7-3.1-1.7L48.5,30.3z"/>
						<path d="M52.4,34.5c-0.6,0-1.2,0-1.9-0.2c-1.9-0.4-3.2-1.7-3.3-1.7l-0.1-0.1l1.3-2.6l0.3,0.3c0,0,0.8,1,2.5,1.2
							c0.8,0.1,1.3,0.1,1.5,0.1c-0.3-0.6-0.9-2.1-0.5-2.9c0.2-0.5,0.8-0.8,1.5-0.7c0.7,0.1,1.3,0.5,1.5,1.2c0.2,0.5,0.1,0.8-0.1,1.2
							c-0.2,0.3-0.5,0.5-0.7,0.6l0.2,3.6l-0.2,0C54.3,34.3,53.5,34.5,52.4,34.5z M47.7,32.3c0.4,0.3,1.4,1.2,2.9,1.5
							c1.4,0.3,2.9,0.1,3.4,0l-0.2-3.6l0.2,0c0,0,0.4-0.1,0.6-0.4c0.1-0.2,0.1-0.4,0-0.7c-0.2-0.5-0.6-0.8-1.1-0.8
							c-0.4,0-0.8,0.1-1,0.4c-0.3,0.5,0.2,1.9,0.6,2.7l0,0.1v0.1c0,0.1,0,0.2-0.1,0.2c-0.1,0.1-0.3,0.2-2.1,0
							c-1.4-0.2-2.2-0.7-2.6-1.1L47.7,32.3z"/>
					</g>
					<g>
						<path class="st1" d="M59,31.1c0,0-0.2,0.6,0.4,1c0.6,0.4,1.7-1.3,1.5-1.9s-0.5-0.7-0.5-0.7L59,31.1z"/>
						<path d="M59.6,32.5c-0.2,0-0.3-0.1-0.4-0.1c-0.6-0.4-0.6-1.1-0.5-1.3l0-0.1l1.5-1.6l0.1,0c0.1,0,0.5,0.1,0.7,0.8
							c0.2,0.6-0.4,1.6-0.9,2.1C60,32.5,59.8,32.5,59.6,32.5z M59.2,31.3c0,0.1,0,0.5,0.3,0.7c0.1,0.1,0.2,0,0.3-0.1
							c0.5-0.3,0.8-1.2,0.7-1.5c-0.1-0.2-0.1-0.3-0.2-0.4L59.2,31.3z"/>
					</g>
					<g>
						<path class="st1" d="M60.8,27.8c0,0,0.6,0.4,0.4,1.3c-0.2,0.8-1.9,2.7-2.5,1.5c-0.6-1.3,1-2,1-2L60.8,27.8z"/>
						<path d="M59.3,31.2c-0.4,0-0.6-0.2-0.8-0.6c-0.2-0.4-0.2-0.8-0.1-1.1c0.3-0.8,1.1-1.2,1.2-1.3l1.2-0.8l0.1,0.1
							c0,0,0.8,0.5,0.5,1.5c-0.2,0.7-1.2,2-2.1,2.1C59.3,31.2,59.3,31.2,59.3,31.2z M60.7,28.1l-0.9,0.6c0,0-0.8,0.4-1,1
							c-0.1,0.2-0.1,0.5,0.1,0.7c0.1,0.3,0.3,0.3,0.4,0.3c0.6-0.1,1.5-1.1,1.6-1.7C61,28.5,60.9,28.3,60.7,28.1z"/>
					</g>
					<g>
						<path class="st1" d="M59.7,25.7c0,0,1.5,0.6,1.3,1.5c-0.2,0.8-0.4,1.5-1.9,1.5s-1-1.3-0.4-1.7c0.6-0.4,1-0.4,1-0.4V25.7z"/>
						<path d="M59.1,28.9c-0.9,0-1.1-0.4-1.2-0.7c-0.2-0.5,0.2-1.2,0.7-1.5c0.4-0.3,0.7-0.4,0.9-0.4v-1l0.4,0.2
							c0.1,0,1.7,0.7,1.4,1.8C61,28.2,60.7,28.9,59.1,28.9z M59.7,26.8c0,0-0.4,0-0.9,0.4c-0.3,0.2-0.5,0.6-0.4,0.9
							c0.1,0.3,0.5,0.3,0.7,0.3c1.3,0,1.4-0.5,1.6-1.3c0.1-0.4-0.4-0.7-0.7-1v0.7H59.7z"/>
					</g>
					<path d="M59.5,24.2c0-0.1-0.5-1.6-2.9-1.6c-2.4,0-3,1.2-3,1.3l-0.5-0.2c0-0.1,0.8-1.6,3.5-1.6c2.8,0,3.4,1.9,3.4,2L59.5,24.2z"
						/>
					<path d="M56.5,24.3c-2,0-2.6-1.3-2.6-1.3l0.5-0.2c0,0,0.5,1,2.1,1c1.6,0,2.2-0.9,2.3-0.9l0.4,0.3
						C59.1,23.2,58.4,24.3,56.5,24.3z"/>
					<polygon points="53.3,23.6 54.1,23 54.8,23.8 54,24.5 					"/>
					<g>
						<path class="st1" d="M48,50.5c-0.6-1.7-2.2-1.9-3.9-1.4L41.6,50l-3.2-8.8C44.6,39,49,33.1,49,26.1c0-8.9-7.2-16-16-16
							s-16,7.2-16,16c0,8.7,6.9,15.7,15.5,16l3.6,9.6c0,0.1,0,0.1,0,0.2l1.4,4.2c0,0.1,0.2,0.8,0.9,0.5l9.7-3.3
							c0.4-0.1,0.6-0.5,0.5-0.9L48,50.5z"/>
						<path d="M38.1,56.9c-0.1,0-0.2,0-0.4-0.1c-0.2-0.1-0.4-0.3-0.5-0.6L35.9,52c0-0.1,0-0.1,0-0.2l-3.5-9.5
							c-4.2-0.2-8.1-1.9-11-4.9c-3-3.1-4.6-7.1-4.6-11.3c0-9,7.3-16.3,16.3-16.3s16.3,7.3,16.3,16.3c0,6.8-4.2,12.9-10.6,15.2l3,8.3
							l2.2-0.7c2.1-0.7,3.7-0.1,4.2,1.5l0.6,1.8c0.2,0.5-0.1,1.1-0.6,1.3l-9.7,3.3C38.4,56.9,38.3,56.9,38.1,56.9z M33,10.3
							c-8.7,0-15.8,7.1-15.8,15.8c0,8.6,6.7,15.5,15.3,15.8l0.2,0l3.6,9.8l0,0c0,0,0,0.1,0,0.1l1.4,4.2c0,0.2,0.1,0.3,0.2,0.3
							c0.1,0,0.2,0,0.4,0l9.7-3.3c0.2-0.1,0.4-0.4,0.3-0.6l-0.6-1.8c-0.7-2-2.9-1.4-3.6-1.2l-2.7,0.9L38.1,41l0.2-0.1
							c6.3-2.2,10.5-8.2,10.5-14.8C48.8,17.4,41.7,10.3,33,10.3z"/>
					</g>
					<polygon class="st0" points="35.9,50.5 41,48.6 42,50.1 48.1,51.6 48.7,53.1 38,56.6 					"/>
					<path d="M38.1,56.9c-0.1,0-0.2,0-0.4-0.1c-0.2-0.1-0.4-0.3-0.5-0.6L35.9,52c0-0.1,0-0.1,0-0.2l-3.5-9.5
						c-4.2-0.2-8.1-1.9-11-4.9c-3-3.1-4.6-7.1-4.6-11.3c0-9,7.3-16.3,16.3-16.3s16.3,7.3,16.3,16.3c0,6.8-4.2,12.9-10.6,15.2l3,8.3
						l2.2-0.7c2.1-0.7,3.7-0.1,4.2,1.5l0.6,1.8c0.2,0.5-0.1,1.1-0.6,1.3l-9.7,3.3C38.4,56.9,38.3,56.9,38.1,56.9z M33,10.3
						c-8.7,0-15.8,7.1-15.8,15.8c0,8.6,6.7,15.5,15.3,15.8l0.2,0l3.6,9.8l0,0c0,0,0,0.1,0,0.1l1.4,4.2c0,0.2,0.1,0.3,0.2,0.3
						c0.1,0,0.2,0,0.4,0l9.7-3.3c0.2-0.1,0.4-0.4,0.3-0.6l-0.6-1.8c-0.7-2-2.9-1.4-3.6-1.2l-2.7,0.9L38.1,41l0.2-0.1
						c6.3-2.2,10.5-8.2,10.5-14.8C48.8,17.4,41.7,10.3,33,10.3z"/>
					<g>
						<path class="st3" d="M48.6,52.4L48,50.5c-0.6-1.7-2.2-1.9-3.9-1.4L41.6,50l-4.3-11.8l-5.6,1.9l4.3,11.6c0,0.1,0,0.1,0,0.2
							l1.4,4.2c0,0.1,0.2,0.8,0.9,0.5l9.7-3.3C48.5,53.2,48.7,52.8,48.6,52.4z"/>
						<path d="M37.4,55.7l11.1-3.8c0,0-0.3-2-1.2-2.4s-1.5-0.9-3.6-0.2c-2.2,0.7-7.6,2.6-7.6,2.6L37.4,55.7z"/>
						<g>
							<line class="st0" x1="35.6" y1="50.4" x2="41" y2="48.4"/>
							<rect x="35.4" y="49.1" transform="matrix(0.9386 -0.345 0.345 0.9386 -14.6833 16.2434)" width="5.8" height="0.5"/>
						</g>
					</g>
					<path d="M20.9,48.9l8,8.5c0,0,1.3-1.2,1.5-1.5c0.2-0.3,0.8-2-1-4.1c-1.7-2.1-5.4-5.2-5.4-5.2L20.9,48.9z"/>
					<g>
						<line class="st0" x1="25.2" y1="45.8" x2="29.5" y2="50.2"/>
						<rect x="27.1" y="44.9" transform="matrix(0.7185 -0.6956 0.6956 0.7185 -25.6837 32.5327)" width="0.5" height="6.2"/>
					</g>
					<path d="M3.7,17.4c0,0-0.1,0-0.1-0.1c0-0.1-0.5-1.3,0-2c0-0.1,0.1-0.1,0.2,0c0.1,0,0.1,0.1,0,0.2c-0.5,0.6,0,1.7,0,1.7
						C3.9,17.3,3.8,17.3,3.7,17.4C3.7,17.4,3.7,17.4,3.7,17.4z"/>
					<path d="M2.7,16.2c-0.1,0-0.1,0-0.1-0.1c0,0-0.1-0.7,0.3-1c0.1,0,0.1,0,0.2,0c0,0.1,0,0.1,0,0.2C2.7,15.5,2.8,16,2.8,16
						C2.8,16.1,2.8,16.2,2.7,16.2C2.7,16.2,2.7,16.2,2.7,16.2z"/>
					<path d="M14.6,18.8C14.6,18.8,14.6,18.8,14.6,18.8c-0.1-0.1-0.1-0.1-0.1-0.2c0.2-0.3,0.1-0.7,0-0.7c-0.1-0.1-0.1-0.1,0-0.2
						c0.1-0.1,0.1-0.1,0.2,0c0.2,0.2,0.3,0.6,0,1.1C14.7,18.8,14.7,18.8,14.6,18.8z"/>
				</g>
				<g>
					<ellipse cx="33.7" cy="21.3" rx="0.7" ry="2"/>
					<ellipse cx="38.1" cy="21.3" rx="0.7" ry="2"/>
					<path d="M35.8,33.9c-4.7,0-8.5-3.8-8.5-8.5c0-0.1,0.1-0.3,0.3-0.3s0.3,0.1,0.3,0.3c0,4.4,3.6,7.9,7.9,7.9
						c2.8,0,5.4-1.5,6.8-3.9c0.1-0.1,0.2-0.2,0.4-0.1c0.1,0.1,0.2,0.2,0.1,0.4C41.5,32.3,38.7,33.9,35.8,33.9z"/>
				</g>
				<path d="M26.9,25.8c-0.7,0-1.2-0.4-1.2-0.5c-0.1-0.1-0.1-0.3,0-0.4c0.1-0.1,0.3-0.1,0.4,0c0,0,0.6,0.5,1.4,0.2
					c0.9-0.3,0.9-1.2,0.9-1.2c0-0.1,0.1-0.3,0.3-0.3s0.3,0.1,0.3,0.3c0,0,0,1.2-1.2,1.7C27.4,25.8,27.1,25.8,26.9,25.8z"/>
				<path d="M30.7,19.6C30.7,19.6,30.7,19.6,30.7,19.6c-0.2,0-0.3-0.2-0.3-0.3c0.1-0.7,0.7-2.2,2.1-2.3c0.1,0,0.3,0.1,0.3,0.2
					c0,0.1-0.1,0.3-0.2,0.3c-1.3,0.1-1.6,1.8-1.6,1.9C30.9,19.5,30.8,19.6,30.7,19.6z"/>
				<path d="M41.1,19.5c-0.1,0-0.2-0.1-0.3-0.2l0,0c0-0.1-0.3-1.7-1.6-1.9c-0.1,0-0.2-0.1-0.2-0.3c0-0.1,0.1-0.3,0.3-0.2
					c1.4,0.1,2,1.6,2.1,2.3C41.4,19.3,41.3,19.4,41.1,19.5C41.1,19.5,41.1,19.5,41.1,19.5z"/>
				<path class="st0" d="M20.2,21c0,0-0.1,0-0.1,0c-0.2-0.1-0.2-0.3-0.2-0.4c0.1-0.2,1.9-4.8,5.2-6.2c0.2-0.1,0.4,0,0.4,0.2
					c0.1,0.2,0,0.4-0.2,0.4c-3.1,1.3-4.9,5.8-4.9,5.8C20.5,21,20.3,21,20.2,21z"/>
				<ellipse cx="23.3" cy="58" rx="4.6" ry="0.7"/>
				<ellipse cx="41" cy="57" rx="8.4" ry="0.7"/>
			</g>
		</g>
	</g>
</g>
</svg>
