<svg id="Layer_1" data-name="Layer 1" xmlns="http://www.w3.org/2000/svg" viewBox="0 0 64 64"><defs><style>.cls-1,.cls-2{fill:none;stroke:#e98286;stroke-width:2px;}.cls-1{stroke-linecap:round;stroke-linejoin:round;}.cls-2{stroke-miterlimit:10;}</style></defs><title>Icon Line</title><g id="Line"><path class="cls-1" d="M18.73,19.26l-2.23-1a4.85,4.85,0,0,1,2.25.71c-1.27-1.94-4-3.27-7.18-3.27l-.69,0-6.61-3c1.61-2.42,5.59-3.06,9.31-1.39S19.46,16.45,18.73,19.26Z"/><path class="cls-1" d="M59,43.16V47.8H33A15.75,15.75,0,0,0,26.23,40a8.14,8.14,0,0,1,7.93-2.91c-2.39,1.72-1.2,6.63-1.2,6.63h4.52c2.65-8.36,9.82-6.63,9.82-6.63-2.39,1.72-1.2,6.63-1.2,6.63h4.42c2.65-8.36,9.83-6.63,9.83-6.63C58.42,38.43,58.81,41.85,59,43.16Z"/><path class="cls-1" d="M59,47.8v5.77h-25A15.79,15.79,0,0,0,33,47.8Z"/><path class="cls-1" d="M34.05,53.57H8V37.82h7.62c-.08,1-.15,2-.23,3.06a5.29,5.29,0,0,0,7.08,0l-.18-2.54A15.58,15.58,0,0,1,26.23,40a15.72,15.72,0,0,1,7.82,13.61Z"/><path class="cls-1" d="M22.48,40.88a5.29,5.29,0,0,1-7.08,0c.08-1,.15-2,.23-3.06q.63-8.49,1.27-17H21l1.26,17.5Z"/><path class="cls-1" d="M18.75,19a4.85,4.85,0,0,0-2.25-.71,8.85,8.85,0,0,0-6.37,2.53H3.65c.45-2.71,3.47-4.84,7.23-5.06l.69,0C14.73,15.7,17.48,17,18.75,19Z"/><path class="cls-1" d="M19.49,20.79H17.3l1.59-1.59.05.07A4.71,4.71,0,0,1,19.49,20.79Z"/><path class="cls-1" d="M18.89,19.2,17.3,20.79,7.77,30.33c-1.69-2.37-.89-6.32,2-9.2l.36-.34c2.76-2.53,6.35-3.25,8.62-1.82A1.09,1.09,0,0,1,18.89,19.2Z"/><path class="cls-1" d="M19,19.12l-.09.08a1.09,1.09,0,0,0-.14-.23l.19.13Z"/><path class="cls-1" d="M33.61,12.75l-6.61,3-.69,0c-3.16,0-5.9,1.33-7.18,3.27a4.89,4.89,0,0,1,2.25-.71l-2.22,1c-.74-2.81,1.41-6.22,5.14-7.9S32,10.33,33.61,12.75Z"/><path class="cls-1" d="M19,19.2l1.59,1.59H18.39a4.71,4.71,0,0,1,.55-1.52Z"/><path class="cls-1" d="M34.23,20.79H27.75a8.82,8.82,0,0,0-6.37-2.53,4.89,4.89,0,0,0-2.25.71c1.28-1.94,4-3.27,7.18-3.27l.69,0C30.76,16,33.79,18.08,34.23,20.79Z"/><path class="cls-1" d="M30.11,30.33l-9.53-9.54L19,19.2a1.76,1.76,0,0,1,.14-.23c2.28-1.43,5.86-.71,8.62,1.82l.36.34C31,24,31.8,28,30.11,30.33Z"/><path class="cls-1" d="M19.13,19a1.76,1.76,0,0,0-.14.23l-.08-.08,0,0Z"/><line class="cls-1" x1="15.77" y1="36.05" x2="17.98" y2="36.05"/><line class="cls-1" x1="19.5" y1="27.98" x2="21.28" y2="27.98"/><circle class="cls-2" cx="49.16" cy="21.81" r="6.96"/></g></svg>