<?xml version="1.0" encoding="utf-8"?>
<!-- Generator: Adobe Illustrator 25.2.1, SVG Export Plug-In . SVG Version: 6.00 Build 0)  -->
<svg version="1.1" id="Layer_1" xmlns="http://www.w3.org/2000/svg" xmlns:xlink="http://www.w3.org/1999/xlink" x="0px" y="0px"
	 viewBox="0 0 64 64" style="enable-background:new 0 0 64 64;" xml:space="preserve">
<style type="text/css">
	.st0{fill:#FFFFFF;}
</style>
<path class="st0" d="M43.5,54.6H27.1c-0.1,0-0.2-0.1-0.2-0.1c0-0.1,0-0.2,0-0.3l5.4-6.5l0.4,0.3l-5,6.1h15.7l4.9-6.4l0.4,0.3l-5,6.5
	C43.6,54.6,43.6,54.6,43.5,54.6z"/>
<rect x="37.3" y="43.7" transform="matrix(1.220482e-02 -0.9999 0.9999 1.220482e-02 -14.6227 88.5491)" class="st0" width="0.5" height="15.9"/>
<rect x="38.4" y="42.3" transform="matrix(1.203639e-02 -0.9999 0.9999 1.203639e-02 -12.1982 88.3207)" class="st0" width="0.5" height="16.1"/>
<rect x="39.3" y="41.1" transform="matrix(1.212714e-02 -0.9999 0.9999 1.212714e-02 -10.0779 88.0247)" class="st0" width="0.5" height="16"/>
<rect x="30.8" y="49.5" transform="matrix(0.5956 -0.8033 0.8033 0.5956 -26.5879 46.6975)" class="st0" width="4.6" height="0.5"/>
<rect x="33.1" y="49.5" transform="matrix(0.5838 -0.8119 0.8119 0.5838 -25.6064 49.5171)" class="st0" width="4.8" height="0.5"/>
<rect x="35.3" y="49.5" transform="matrix(0.6001 -0.7999 0.7999 0.6001 -24.6866 50.0861)" class="st0" width="4.9" height="0.5"/>
<rect x="37.9" y="49.5" transform="matrix(0.5956 -0.8033 0.8033 0.5956 -23.7251 52.3836)" class="st0" width="4.6" height="0.5"/>
<rect x="39.8" y="49.5" transform="matrix(0.6001 -0.7999 0.7999 0.6001 -22.8808 53.6982)" class="st0" width="4.9" height="0.5"/>
<rect x="42" y="49.6" transform="matrix(0.5884 -0.8086 0.8086 0.5884 -21.9612 56.4501)" class="st0" width="5" height="0.5"/>
<path class="st0" d="M48.5,48.1C48.5,48.1,48.5,48.1,48.5,48.1L32.4,48c-0.1,0-0.2-0.1-0.2-0.2V36.9c0-0.1,0.1-0.2,0.2-0.2h16.1
	c0.1,0,0.2,0.1,0.2,0.2v11c0,0.1,0,0.1-0.1,0.2C48.6,48.1,48.6,48.1,48.5,48.1z M32.6,47.5l15.6,0.1V37.2H32.6V47.5z"/>
<path class="st0" d="M37.2,14.3c-0.1,0-0.1,0-0.2-0.1c0,0-1.1-1.1-1.9-1.6c-0.8-0.5-1.7-0.4-1.7-0.4c-0.1,0-0.3-0.1-0.3-0.2
	c0-0.1,0.1-0.3,0.2-0.3c0,0,1.1-0.1,2,0.5c0.9,0.5,2,1.6,2,1.6c0.1,0.1,0.1,0.3,0,0.4C37.4,14.3,37.3,14.3,37.2,14.3z"/>
<path class="st0" d="M38.1,13.1c-0.1,0-0.2,0-0.2-0.1c-0.2-0.3-0.7-1.2-1.3-1.4c-0.1,0-0.2-0.2-0.2-0.3c0-0.1,0.2-0.2,0.3-0.2
	c0.9,0.3,1.6,1.6,1.6,1.6c0.1,0.1,0,0.3-0.1,0.3C38.2,13.1,38.2,13.1,38.1,13.1z"/>
<path class="st0" d="M39.4,22.4C39.4,22.4,39.3,22.4,39.4,22.4c-0.2,0-0.3-0.2-0.3-0.3c0.1-0.7,0.1-1.9-0.2-2.2
	c-0.1-0.1-0.1-0.2-0.1-0.4c0.1-0.1,0.2-0.1,0.4-0.1c0.7,0.5,0.5,2.3,0.4,2.7C39.6,22.3,39.5,22.4,39.4,22.4z"/>
<path class="st0" d="M37.8,22.9C37.8,22.9,37.7,22.9,37.8,22.9c-0.2,0-0.3-0.2-0.3-0.3c0,0,0.3-1.5-0.3-2.5
	c-0.7-1.1-1.2-1.7-1.2-1.7c-0.1-0.1-0.1-0.3,0-0.4c0.1-0.1,0.3-0.1,0.4,0c0,0,0.5,0.7,1.2,1.8c0.8,1.1,0.4,2.8,0.4,2.9
	C38,22.8,37.9,22.9,37.8,22.9z"/>
<path class="st0" d="M36.2,23.2C36.1,23.2,36.1,23.2,36.2,23.2c-0.2,0-0.3-0.2-0.3-0.3c0,0,0.2-1,0-1.9c-0.2-0.8-1.6-2.8-1.9-3
	c-0.1,0-0.1-0.1-0.1-0.2c0-0.1,0.1-0.3,0.2-0.3c0.1,0,0.3,0,1.2,1.4c0.4,0.5,1,1.5,1.1,2.1c0.2,0.9,0,2,0,2.1
	C36.4,23.2,36.3,23.2,36.2,23.2z M34.2,18.1C34.2,18.1,34.2,18.1,34.2,18.1C34.2,18.1,34.2,18.1,34.2,18.1z"/>
<path class="st0" d="M22.1,57.5c-0.5,0-1.2,0-2.1-0.1c-2.8-0.2-3.3-2.5-3.3-2.5c0,0,0,0,0,0c0-0.1,0.1-9.8,1.3-18
	c1.2-8.2,8.9-18.4,9-18.5c0.1-0.1,0.2-0.1,0.3-0.1c0.1,0.1,0.2,0.2,0.1,0.3c0,0.1-2.1,5.1-3.1,9.3c-1.2,4.6-1.9,12.2-1.7,18.4
	c0.2,6.7,1.1,10.7,1.2,10.7c0,0.1,0,0.1,0,0.2c0,0.1-0.1,0.1-0.2,0.1C23.6,57.4,23.2,57.5,22.1,57.5z M17.2,54.8
	c0,0.2,0.5,1.9,2.8,2.1c1.8,0.1,2.8,0.1,3.3,0c-0.2-1-1-4.8-1.1-10.6c-0.2-6.2,0.5-13.9,1.7-18.5c0.7-2.7,1.7-5.7,2.4-7.6
	c-2.2,3.2-6.8,10.5-7.7,16.7C17.4,44.8,17.2,54.3,17.2,54.8z"/>
<path class="st0" d="M23.2,30.7c0,0-0.2-0.3-1-0.5c-0.7-0.2-1.6-0.1-1.6-0.1c-0.1,0-0.3-0.1-0.3-0.2c0-0.1,0.1-0.3,0.2-0.3
	c0,0,0.9-0.1,1.8,0.1c1.1,0.3,1.4,0.7,1.4,0.8L23.2,30.7C23.2,30.7,23.2,30.7,23.2,30.7z"/>
<path class="st0" d="M24.5,26.7c-0.1,0-0.2-0.1-0.2-0.2c0,0-0.2-0.3-0.7-0.5C23.1,26,22.7,26,22.7,26c-0.1,0-0.3-0.1-0.3-0.2
	c0-0.1,0.1-0.3,0.2-0.3c0,0,0.5-0.1,1.1,0.1c0.8,0.2,1,0.7,1,0.8c0.1,0.1,0,0.3-0.1,0.3C24.5,26.7,24.5,26.7,24.5,26.7z"/>
<path class="st0" d="M25.7,22.5C25.7,22.5,25.7,22.5,25.7,22.5c-0.5-0.1-0.8-0.1-0.8-0.1c-0.1,0-0.3,0-0.3-0.2c0-0.1,0-0.3,0.2-0.3
	c0,0,0.4-0.1,1,0.1c0.1,0,0.2,0.2,0.2,0.3C26,22.5,25.8,22.5,25.7,22.5z"/>
<path class="st0" d="M22.5,36.5c0-0.1-0.3-1.4-1.6-1.6c-1.3-0.2-2.1,0.8-2.2,0.8l-0.4-0.3c0-0.1,1-1.3,2.7-1c1.3,0.2,1.9,1.4,2,2
	L22.5,36.5z"/>
<path class="st0" d="M22.4,41.8c-0.1,0-0.2-0.1-0.2-0.2c0,0-0.4-1.1-1.8-1.3c-1.4-0.2-2.2,0.6-2.3,0.6c-0.1,0.1-0.3,0.1-0.4,0
	c-0.1-0.1-0.1-0.3,0-0.4c0,0,1.1-1,2.7-0.8c1.7,0.2,2.1,1.5,2.2,1.6C22.7,41.6,22.6,41.7,22.4,41.8C22.5,41.8,22.5,41.8,22.4,41.8z"
	/>
<path class="st0" d="M22.2,46.7c0-0.1-0.5-1.5-2.2-1.8c-1.7-0.3-2.5,0.8-2.5,0.8l-0.4-0.3c0-0.1,1-1.3,3-1c2,0.3,2.6,2.1,2.6,2.1
	L22.2,46.7z"/>
<path class="st0" d="M22.5,51.7c0-0.1-0.5-1.4-2.3-1.6c-1.8-0.2-2.9,0.8-2.9,0.9l-0.4-0.4c0.1-0.1,1.3-1.3,3.4-1
	c2.1,0.3,2.7,1.9,2.7,1.9L22.5,51.7z"/>
<path class="st0" d="M27.2,18.8C27.2,18.8,27.2,18.8,27.2,18.8C27,18.7,27,18.6,27,18.5c0-0.1,0.6-2.8,4.6-5.7
	c4-2.9,8.6-1.4,8.8-1.3c0.1,0,0.2,0.2,0.2,0.3c0,0.1-0.2,0.2-0.3,0.2c0,0-4.6-1.5-8.3,1.2c-1.9,1.4-2.9,2.7-3.6,3.7
	c0.4-0.4,1-0.7,1.6-0.7c1.7-0.2,2.8,0.4,2.8,0.4c0.1,0.1,0.2,0.2,0.1,0.3C32.8,17,32.6,17,32.5,17c0,0-1-0.5-2.5-0.3
	c-1.5,0.2-2.5,2-2.5,2C27.4,18.7,27.3,18.8,27.2,18.8z"/>
<path class="st0" d="M34.7,16.5c-0.1,0-0.1,0-0.2-0.1c0,0-0.7-0.7-2.2-1c-1.5-0.3-3.2,0.2-3.2,0.2c-0.1,0-0.3,0-0.3-0.2
	c0-0.1,0-0.3,0.2-0.3c0.1,0,1.8-0.6,3.5-0.3c1.7,0.4,2.4,1.1,2.4,1.1c0.1,0.1,0.1,0.3,0,0.4C34.9,16.4,34.8,16.5,34.7,16.5z"/>
<path class="st0" d="M36.3,15.6c-0.1,0-0.1,0-0.2-0.1c0,0-1-1.2-2-1.5c-1-0.3-3-0.3-3-0.3c-0.1,0-0.3-0.1-0.3-0.2
	c0-0.1,0.1-0.3,0.2-0.3c0.1,0,2-0.1,3.2,0.3c1.1,0.4,2.2,1.6,2.3,1.7c0.1,0.1,0.1,0.3,0,0.4C36.5,15.6,36.4,15.6,36.3,15.6z"/>
<path class="st0" d="M41.4,23.2c-0.1,0-0.2-0.1-0.2-0.2c0,0-0.9-3.4-5.5-4.6c-4.6-1.2-8.1,1.2-8.2,1.2c-0.1,0.1-0.3,0.1-0.4-0.1
	c-0.1-0.1-0.1-0.3,0.1-0.4c0.1-0.1,3.7-2.6,8.6-1.3c4.9,1.3,5.9,4.9,5.9,5C41.7,23,41.6,23.1,41.4,23.2
	C41.5,23.2,41.4,23.2,41.4,23.2z"/>
<path class="st0" d="M34.4,22.4c-0.1,0-0.2-0.1-0.3-0.2c0-0.5-0.3-1.9-0.8-2.3c-0.7-0.5-2.3-1.7-2.3-1.7c-0.1-0.1-0.1-0.2-0.1-0.4
	c0.1-0.1,0.2-0.1,0.4-0.1c0,0,1.6,1.2,2.4,1.7c0.8,0.6,1,2.5,1,2.7C34.6,22.2,34.5,22.3,34.4,22.4C34.4,22.4,34.4,22.4,34.4,22.4z"
	/>
<path class="st0" d="M32.4,21.5c-0.1,0-0.2-0.1-0.2-0.2l0,0c0,0-0.5-1.2-1.5-1.7c-1-0.5-2.1-0.7-2.1-0.7c-0.1,0-0.2-0.2-0.2-0.3
	c0-0.1,0.2-0.2,0.3-0.2c0,0,1.2,0.2,2.3,0.8c1.1,0.6,1.7,1.9,1.7,1.9c0.1,0.1,0,0.3-0.1,0.3C32.5,21.5,32.5,21.5,32.4,21.5z"/>
<path class="st0" d="M33.5,32.7C33.5,32.7,33.5,32.7,33.5,32.7c-0.2,0-0.3-0.2-0.3-0.3c0-0.1,1-5.6-0.8-8.2
	c-1.9-2.6-5.2-4.4-5.3-4.4c-0.1-0.1-0.2-0.2-0.1-0.3c0.1-0.1,0.2-0.2,0.3-0.1c0.1,0.1,3.5,1.8,5.4,4.5c2,2.7,1,8.3,0.9,8.6
	C33.7,32.6,33.6,32.7,33.5,32.7z"/>
<path class="st0" d="M32.4,31.1c-0.1,0-0.3-0.1-0.3-0.3c0-0.1,0.1-0.3,0.3-0.3c0,0,0.6,0,0.8-0.6c0.2-0.4,0.3-0.8,0.3-0.8
	c0-0.1,0.2-0.2,0.3-0.2c0.1,0,0.2,0.2,0.2,0.3c0,0-0.1,0.5-0.3,1C33.3,31.1,32.5,31.1,32.4,31.1z"/>
<path class="st0" d="M31.7,30.4c-0.1,0-0.1,0-0.2-0.1c-0.1-0.1-0.1-0.3,0-0.4c0,0,0.5-0.5,1.2-1.6c0.6-1,0.5-2,0.5-2
	c0-0.1,0.1-0.3,0.2-0.3c0.1,0,0.3,0.1,0.3,0.2c0,0,0.1,1.2-0.6,2.3c-0.7,1.1-1.3,1.6-1.3,1.6C31.8,30.4,31.8,30.4,31.7,30.4z"/>
<path class="st0" d="M30.3,29.3v-0.5c0,0,0,0,0,0c0,0,0.5-0.1,1.4-1.5c1-1.5,0.7-3.2,0.7-3.2c0-0.1,0.1-0.3,0.2-0.3
	c0.1,0,0.3,0.1,0.3,0.2c0,0.1,0.4,1.9-0.8,3.6C31,29.2,30.4,29.3,30.3,29.3z"/>
<path class="st0" d="M29.6,27.5c-0.1,0-0.1,0-0.2-0.1c-0.1-0.1-0.1-0.3,0-0.4c0,0,0.9-0.9,1.2-2c0.3-1.2,0-2.8,0-2.8
	c0-0.1,0.1-0.3,0.2-0.3c0.1,0,0.3,0.1,0.3,0.2c0,0.1,0.4,1.8,0,3.1c-0.4,1.3-1.3,2.2-1.3,2.3C29.7,27.5,29.6,27.5,29.6,27.5z"/>
<path class="st0" d="M29,25.7C29,25.7,29,25.7,29,25.7c-0.2-0.1-0.3-0.2-0.2-0.3c0,0,0.3-1.1,0.3-2.4c0-1.3-1.3-2.5-1.3-2.5
	c-0.1-0.1-0.1-0.3,0-0.4c0.1-0.1,0.3-0.1,0.4,0c0.1,0.1,1.5,1.3,1.5,2.9c0,1.5-0.4,2.5-0.4,2.6C29.2,25.7,29.1,25.7,29,25.7z"/>
<path class="st0" d="M25.6,11c-0.1,0-0.1,0-0.2-0.1c0,0-1.7-1.6-3.1-1.4c-1.4,0.2-1.8,0.5-1.8,0.5c-0.1,0.1-0.3,0.1-0.4,0
	c-0.1-0.1-0.1-0.3,0-0.4c0.1-0.1,0.5-0.4,2.1-0.6c1.7-0.2,3.5,1.5,3.6,1.6c0.1,0.1,0.1,0.3,0,0.4C25.7,11,25.7,11,25.6,11z"/>
<path class="st0" d="M26.3,13c-0.1,0-0.2,0-0.2-0.1c-0.2-0.4-1.2-1.5-2.7-1.7c-1.5-0.2-2.5,0.5-2.5,0.5c-0.1,0.1-0.3,0-0.4-0.1
	c-0.1-0.1,0-0.3,0.1-0.4c0,0,1.2-0.8,2.8-0.6c1.7,0.2,2.8,1.4,3,1.9c0.1,0.1,0,0.3-0.1,0.4C26.3,13,26.3,13,26.3,13z"/>
<path class="st0" d="M26.7,14.9c-0.1,0-0.2,0-0.2-0.1c-0.7-0.9-1.9-1.5-2.6-1.7c-0.7-0.2-2.4,0-2.4,0c-0.1,0-0.3-0.1-0.3-0.2
	c0-0.1,0.1-0.3,0.2-0.3c0.1,0,1.8-0.2,2.6,0c0.8,0.2,2.1,1,2.8,1.9c0.1,0.1,0.1,0.3,0,0.4C26.8,14.8,26.8,14.9,26.7,14.9z"/>
<path class="st0" d="M27.2,18.8c-0.1,0-0.2-0.1-0.2-0.2c0,0-0.9-2.1-1.6-3.2c-0.6-0.9-2.2-0.8-2.3-0.8c-0.1,0-0.3-0.1-0.3-0.2
	c0-0.1,0.1-0.3,0.2-0.3c0.1,0,1.9-0.2,2.7,1c0.7,1.1,1.6,3.2,1.6,3.3C27.5,18.6,27.5,18.7,27.2,18.8C27.3,18.8,27.3,18.8,27.2,18.8z
	"/>
<path class="st0" d="M26.9,19.7c-0.1,0-0.2,0-0.2-0.1c0,0-0.7-0.9-3-2.7c-2.3-1.8-3.4-2.1-7-2.1c-3.6,0-6.2,2.6-6.2,2.6
	c-0.1,0.1-0.3,0.1-0.4,0c-0.1-0.1-0.1-0.3,0-0.4c0.1-0.1,2.8-2.8,6.6-2.8c3.7,0,4.9,0.3,7.3,2.2c2.3,1.8,3,2.7,3.1,2.8
	c0.1,0.1,0.1,0.3-0.1,0.4C27,19.7,26.9,19.7,26.9,19.7z"/>
<path class="st0" d="M20.3,19.3c-0.1,0-0.1,0-0.2-0.1c-0.1-0.1-0.1-0.3,0-0.4c0-0.1,1.2-1.3,2.9-1.3c1.6,0,2.7,0.4,2.7,0.4
	c0.1,0.1,0.2,0.2,0.1,0.3c-0.1,0.1-0.2,0.2-0.3,0.1c0,0-1-0.4-2.5-0.4c-1.5,0-2.5,1.1-2.5,1.2C20.4,19.3,20.4,19.3,20.3,19.3z"/>
<path class="st0" d="M18,19.7c0,0-0.1,0-0.1,0c-0.1-0.1-0.2-0.2-0.1-0.3c0-0.1,0.8-1.7,2.5-2.4c1.6-0.7,3.2-0.7,3.3-0.7
	c0.1,0,0.3,0.1,0.2,0.3s-0.1,0.3-0.3,0.2c0,0-1.5,0-3.1,0.6c-1.5,0.7-2.2,2.2-2.2,2.2C18.2,19.6,18.1,19.7,18,19.7z"/>
<path class="st0" d="M16,19.3C16,19.3,16,19.3,16,19.3c-0.2-0.1-0.3-0.2-0.2-0.3c0-0.1,0.6-1.9,1.7-2.8c1.1-0.9,3.3-1.4,3.4-1.4
	c0.1,0,0.3,0.1,0.3,0.2c0,0.1-0.1,0.3-0.2,0.3c0,0-2.2,0.5-3.2,1.3c-1,0.8-1.5,2.5-1.5,2.6C16.2,19.3,16.1,19.3,16,19.3z"/>
<path class="st0" d="M14.2,19C14.2,19,14.2,19,14.2,19c-0.1,0-0.3-0.1-0.3-0.3c0-0.1,0-1.5,1-2.5c0.9-0.9,2.8-1.8,2.9-1.8
	c0.1-0.1,0.3,0,0.3,0.1c0.1,0.1,0,0.3-0.1,0.3c0,0-1.9,0.9-2.8,1.7c-0.8,0.8-0.8,2.1-0.8,2.1C14.5,18.9,14.4,19,14.2,19z"/>
<path class="st0" d="M12.6,18.1c-0.1,0-0.3-0.1-0.3-0.3c0-0.1,0-1.4,1.2-2.3c1-0.8,1.4-0.9,1.6-0.8c0.1,0.1,0.2,0.2,0.1,0.3
	c-0.1,0.1-0.2,0.2-0.3,0.1c-0.1,0-0.3,0.1-1.1,0.7c-1,0.8-1,1.9-1,1.9C12.9,18,12.8,18.1,12.6,18.1z M14.9,15.1
	C14.9,15.1,14.9,15.1,14.9,15.1C14.9,15.1,14.9,15.1,14.9,15.1z M14.9,15.1C14.9,15.1,14.9,15.1,14.9,15.1
	C14.9,15.1,14.9,15.1,14.9,15.1z"/>
<path class="st0" d="M14.8,27.9c-0.1,0-0.3-0.1-0.3-0.3c0-0.2-0.1-3.8,3.6-6.4c3.2-2.2,7.6-2.4,8.7-2.4c0-1,0-4.6-1.2-7.6
	c-1.4-3.4-6.4-4.8-6.4-4.8c-0.1,0-0.2-0.2-0.2-0.3C19,6,19.1,5.9,19.3,6c0.2,0.1,5.3,1.5,6.8,5.1c1.4,3.6,1.2,7.8,1.2,8
	c0,0.1-0.1,0.2-0.3,0.2c-0.1,0-5.2-0.1-8.6,2.3C15,24.1,15,27.6,15,27.6C15,27.8,14.9,27.9,14.8,27.9C14.8,27.9,14.8,27.9,14.8,27.9
	z"/>
<path class="st0" d="M16.7,27.2c-0.1,0-0.1,0-0.2-0.1c0,0-1-1-0.8-2.4c0.2-1.2,0.4-1.6,0.4-1.6c0.1-0.1,0.2-0.2,0.4-0.1
	c0.1,0.1,0.2,0.2,0.1,0.4c0,0-0.1,0.3-0.3,1.4c-0.2,1.1,0.6,1.9,0.6,1.9c0.1,0.1,0.1,0.3,0,0.4C16.8,27.1,16.8,27.2,16.7,27.2z"/>
<path class="st0" d="M18,26.5c-0.1,0-0.2-0.1-0.2-0.2c0,0-0.4-0.9-0.6-2c-0.2-0.9,0.2-2.3,0.2-2.4c0-0.1,0.2-0.2,0.3-0.2
	c0.1,0,0.2,0.2,0.2,0.3c0,0-0.3,1.4-0.2,2.2c0.2,1,0.5,1.9,0.5,1.9C18.3,26.2,18.2,26.4,18,26.5C18,26.5,18,26.5,18,26.5z"/>
<path class="st0" d="M19.6,26.5c-0.1,0-0.2-0.1-0.2-0.2c0-0.1-0.5-1.7-0.5-2.4c0-2,0.4-3.1,0.4-3.1c0-0.1,0.2-0.2,0.3-0.2
	c0.1,0,0.2,0.2,0.2,0.3c0,0-0.3,1.1-0.3,3c0,0.7,0.5,2.2,0.5,2.2C19.9,26.3,19.8,26.4,19.6,26.5C19.6,26.5,19.6,26.5,19.6,26.5z"/>
<path class="st0" d="M20.8,24.9c-0.1,0-0.2-0.1-0.3-0.2c0-0.1-0.4-1.5,0-2.5c0.5-1.5,1.7-2.7,1.8-2.7c0.1-0.1,0.3-0.1,0.4,0
	c0.1,0.1,0.1,0.3,0,0.4c0,0-1.1,1.2-1.6,2.5c-0.3,0.8,0,2.2,0,2.2C21.1,24.7,21,24.8,20.8,24.9C20.9,24.9,20.8,24.9,20.8,24.9z"/>
<path class="st0" d="M22.4,22.5c0,0-0.1,0-0.1,0c-0.1-0.1-0.2-0.2-0.1-0.4c0,0,0.6-0.9,1.5-1.8c0.9-0.9,1.9-1.4,2-1.4
	c0.1-0.1,0.3,0,0.3,0.1c0.1,0.1,0,0.3-0.1,0.3c0,0-1,0.4-1.8,1.3c-0.9,0.9-1.4,1.7-1.4,1.7C22.6,22.5,22.5,22.5,22.4,22.5z"/>
<path class="st0" d="M28.8,19.3c0,1-0.8,1.8-1.8,1.8c-1,0-1.8-0.8-1.8-1.8c0-1,0.8-1.8,1.8-1.8C28,17.6,28.8,18.3,28.8,19.3"/>
<line class="st0" x1="37" y1="43.7" x2="40.3" y2="40.6"/>
<rect x="36.4" y="41.9" transform="matrix(0.725 -0.6888 0.6888 0.725 -18.3686 38.2268)" class="st0" width="4.5" height="0.5"/>
<line class="st0" x1="38.2" y1="45" x2="43.9" y2="39.4"/>
<rect x="37.1" y="42" transform="matrix(0.7172 -0.6968 0.6968 0.7172 -17.792 40.5466)" class="st0" width="8" height="0.5"/>
</svg>
