<?xml version="1.0" encoding="utf-8"?>
<!-- Generator: Adobe Illustrator 25.2.1, SVG Export Plug-In . SVG Version: 6.00 Build 0)  -->
<svg version="1.1" id="Layer_1" xmlns="http://www.w3.org/2000/svg" xmlns:xlink="http://www.w3.org/1999/xlink" x="0px" y="0px"
	 viewBox="0 0 137.2 155.1" style="enable-background:new 0 0 137.2 155.1;" xml:space="preserve">
<path d="M51.2,24.3l22-2.6l-0.7,19c0,1.6-0.3,10-0.3,11.9C72,58.3,71.7,63,71.3,69.2c1.3-3.3,2.9-7.3,4.7-11.7
	c1.4-3.6,3.4-8.5,4.3-10.8l11.2-27l21.9-2.6L98.2,86l-14.8,1.6l12.4-51.2L73.8,88.6l-13.3,1.5L61,40.4L50.8,91.2L36,92.8L51.2,24.3z
	"/>
<path d="M119.8,86.2c-10.3,19.3-28.8,30.2-50.1,32c-21.3,1.7-40.2-5.5-51.5-21.8L0.8,98c13,25.1,39.3,38.5,69.4,36.4
	c30.1-2.1,55.6-20.7,67-49.9L119.8,86.2z"/>
</svg>
