<?xml version="1.0" encoding="utf-8"?>
<!-- Generator: Adobe Illustrator 25.2.1, SVG Export Plug-In . SVG Version: 6.00 Build 0)  -->
<svg version="1.1" id="Layer_1" xmlns="http://www.w3.org/2000/svg" xmlns:xlink="http://www.w3.org/1999/xlink" x="0px" y="0px"
	 viewBox="0 0 399.6 194.2" style="enable-background:new 0 0 399.6 194.2;" xml:space="preserve">
<style type="text/css">
	.st0{fill:#020203;}
	.st1{fill:#EBAF3C;}
	.st2{fill:#D9643D;}
	.st3{fill:none;stroke:#020203;stroke-width:12.286;stroke-miterlimit:10;}
</style>
<path class="st0" d="M52.3,77.8c-2.1,11-2.4,12.2-4.8,24.3c-2.1,10.7-2.7,13.7-4.8,27.7c-1.7-17.5-2.4-23.1-5.7-48.5l-18.6,4.2
	L0,168.9l17.9-3.6l9.7-51.2c1,11.7,1.2,13.1,2.8,25.7l2.8,22.4l18.4-3.7L70,73.9L52.3,77.8z"/>
<path class="st1" d="M124.3,64.6c-5.2-2.6-13.7-1.2-17.9-0.3c-21.9,4.9-25,16.9-28.1,30.8L71.1,128c-0.6,2.6-1.3,7.3-1.3,10.4
	c0,15.2,13.4,15.5,23.8,13.4c17.5-3.5,24-10.5,27.7-27.3l6.3-29c1.2-5.6,2.9-13.3,2.9-18.7C130.5,72.7,129.7,67.4,124.3,64.6"/>
<path class="st0" d="M196.4,45.5l-13.5,35.1c-1.1,3-3.5,9.4-5.2,14c-2.1,5.6-4,10.9-5.6,15.1c0.4-7.8,0.8-13.6,1.1-20.8
	c0-2.4,0.3-12.8,0.3-14.8l0.8-23.7l-26.5,5.9l-18.3,86.4l17.9-3.6l12.2-64l-0.6,61.7l16.1-3.2L201.6,66l-14.9,65.3l17.9-3.6
	l18.3-88.1L196.4,45.5z"/>
<path class="st2" d="M253,118l18.9-3.8l5.7-86.8l-30.9,6.9l-34,91.8l20.6-4.1"/>
<path class="st0" d="M333.7,80.6l9-44.8c0.6-3.1,0.9-6.2,0.9-8.5c0-14.6-11-12.4-25-9.2l-22.2,5L278,113l33.8-6.8
	C327.4,103,330.4,97,333.7,80.6 M300.2,94.1l12.1-59.8l6.1-1.3c3.3-0.7,5.6-0.5,5.6,3.6c0,0.7-0.1,1.5-0.2,2.3l-8.8,44
	c-1.6,7.7-4.7,8.8-6.4,9.4C307,92.7,306.8,92.7,300.2,94.1"/>
<polygon class="st0" points="396.4,16 399.6,0 359.7,8.9 341.4,100.2 383.3,91.8 386.4,75.6 364,80.3 368.6,56.9 388.2,52.8 
	391.3,37.1 371.7,41.3 375.9,20.5 "/>
<polygon class="st0" points="280,174 290.8,121.1 277.1,123.8 264,187.3 292.2,182.2 294.5,171.4 "/>
<path class="st0" d="M293.3,182l14.7-2.7l4.8-14.6l10.5-1.9l-1.2,14l13.5-2.4l4.1-62.9l-22,4.4L293.3,182z M324.1,152l-7.7,1.4
	l10.3-33.8L324.1,152z"/>
<path class="st0" d="M369,105.6l-16.3,3.2l-13,64.7l24-4.4c6.9-1.3,11.5-3.8,13.8-9.6c1.6-4.2,3.9-16.3,3.9-19.2c0-6-4.5-6.4-7-6.7
	c6.2-2.2,8.4-4.5,9.9-9.7c0.6-2,1.8-8.1,1.8-11.6C386.3,102.2,376.9,104.1,369,105.6 M368.1,146.3l-1.1,5.5c-0.7,3.6-1.3,6-5.3,6.7
	l-5.9,1.1l3.3-16.6l5.4-1c2.2-0.4,3.9,0,3.9,2.3C368.3,145.1,368.3,145.8,368.1,146.3 M373.2,120.8l-0.9,4.3c-0.9,4.3-2.9,5.3-6.1,6
	l-4.9,0.9l2.9-14.2l4.6-0.9c2.2-0.4,4.6-0.9,4.6,2.2C373.3,119.7,373.2,120.2,373.2,120.8"/>
<path class="st3" d="M108.9,174.1c0,0,11.9,21,63.3,11.4c51.4-9.6,63-35.8,63-35.8"/>
</svg>
