<svg xmlns="http://www.w3.org/2000/svg" viewBox="0 0 48 48"><title>06-summer</title><g id="_06-summer" data-name="06-summer"><circle cx="21" cy="11" r="2" style="fill:#5a781e"/><circle cx="25" cy="11" r="2" style="fill:#5a781e"/><path d="M35.68,33h-5.5a26.171,26.171,0,0,0-.67-5h4.96A38.9,38.9,0,0,1,35.68,33Z" style="fill:#b56d3c"/><path d="M32.61,23H28l-.07.03A41.268,41.268,0,0,0,25.51,18H30l.1-.05A53.6,53.6,0,0,1,32.61,23Z" style="fill:#b56d3c"/><path d="M36,36a3,3,0,0,1-6,0,13.259,13.259,0,0,0,.18-3h5.5A20.342,20.342,0,0,1,36,36Z" style="fill:#d99668"/><path d="M34.47,28H29.51a34.5,34.5,0,0,0-1.58-4.97L28,23h4.61A45.688,45.688,0,0,1,34.47,28Z" style="fill:#d99668"/><path d="M30.1,17.95,30,18H25.51c-.72-1.28-1.55-2.62-2.51-4l4-1Q28.77,15.565,30.1,17.95Z" style="fill:#d99668"/><path d="M25,13a2,2,0,1,0-2-2,2,2,0,1,0-2,2,2.006,2.006,0,0,0,2-2A2.006,2.006,0,0,0,25,13Zm7.12-5.15C39,10.41,39,18,39,18c-4-7-12-5-12-5l-4,1A17.762,17.762,0,0,0,8,24S3,14,13,11c0,0-6-3-12-1,0,0,1-9,11-9a11.978,11.978,0,0,1,8,3s2-3,13-3c4,0,7,3,7,5C40,6,35.13,4.05,32.12,7.85Z" style="fill:#b4d241"/><path d="M12,4a11.978,11.978,0,0,1,8,3s2-3,13-3a8.039,8.039,0,0,1,4.69,1.522A8.486,8.486,0,0,1,40,6c0-2-3-5-7-5C22,1,20,4,20,4a11.978,11.978,0,0,0-8-3C2,1,1,10,1,10c.356-.119.713-.217,1.068-.3C3.345,7.128,6.1,4,12,4Z" style="fill:#d2eb5a"/><path d="M13,14a17.942,17.942,0,0,0-3.581-1.209,7.619,7.619,0,0,0-2.553,7.4C7.264,17.733,8.818,15.255,13,14Z" style="fill:#d2eb5a"/><path d="M34.427,9.049a6,6,0,0,0-2.307,1.8,10.023,10.023,0,0,1,5.87,5.689A11.07,11.07,0,0,1,39,18S39,12.223,34.427,9.049Z" style="fill:#d2eb5a"/><path d="M17,41V39l3-3H30a3,3,0,0,0,6,0h9l2,2v9H11V45l4-4Z" style="fill:#f2f6fc"/><path d="M45,36H36a2.938,2.938,0,0,1-3,3h9l2,2v6h3V38Z" style="fill:#afb4c8"/><path d="M30,36H20l-3,3H27a3,3,0,0,0,6,0A2.938,2.938,0,0,1,30,36Z" style="fill:#afb4c8"/><line x1="25" y1="41" x2="27" y2="41" style="fill:none;stroke:#000;stroke-linejoin:round;stroke-width:2px"/><polyline points="23 41 17 41 15 41 11 45 11 47 47 47 47 38 45 36 36 36" style="fill:none;stroke:#000;stroke-linejoin:round;stroke-width:2px"/><polyline points="17 41 17 39 20 36 30 36" style="fill:none;stroke:#000;stroke-linejoin:round;stroke-width:2px"/><path d="M36,36a20.342,20.342,0,0,0-.32-3,38.9,38.9,0,0,0-1.21-5,45.688,45.688,0,0,0-1.86-5,53.6,53.6,0,0,0-2.51-5.05Q28.765,15.565,27,13l-4,1c.96,1.38,1.79,2.72,2.51,4a41.268,41.268,0,0,1,2.42,5.03A34.5,34.5,0,0,1,29.51,28a26.171,26.171,0,0,1,.67,5A13.259,13.259,0,0,1,30,36a3,3,0,0,0,6,0Z" style="fill:none;stroke:#000;stroke-linejoin:round;stroke-width:2px"/><path d="M23,14A17.762,17.762,0,0,0,8,24S3,14,13,11c0,0-6-3-12-1,0,0,1-9,11-9a11.978,11.978,0,0,1,8,3s2-3,13-3c4,0,7,3,7,5,0,0-4.87-1.95-7.88,1.85L32,8" style="fill:none;stroke:#000;stroke-linejoin:round;stroke-width:2px"/><path d="M27,13s8-2,12,5c0,0,0-7.59-6.88-10.15A14.376,14.376,0,0,0,27,7" style="fill:none;stroke:#000;stroke-linejoin:round;stroke-width:2px"/><circle cx="21" cy="11" r="2" style="fill:none;stroke:#000;stroke-linejoin:round;stroke-width:2px"/><circle cx="25" cy="11" r="2" style="fill:none;stroke:#000;stroke-linejoin:round;stroke-width:2px"/><polyline points="25 18 25.51 18 30 18" style="fill:none;stroke:#000;stroke-linejoin:round;stroke-width:2px"/><polyline points="28 23 32.61 23 33 23" style="fill:none;stroke:#000;stroke-linejoin:round;stroke-width:2px"/><polyline points="29 28 29.51 28 34.47 28 35 28" style="fill:none;stroke:#000;stroke-linejoin:round;stroke-width:2px"/><polyline points="30 33 30.18 33 35.68 33 36 33" style="fill:none;stroke:#000;stroke-linejoin:round;stroke-width:2px"/></g></svg>